<?xml version="1.0" encoding="UTF-8"?>
<!DOCTYPE svg PUBLIC "-//W3C//DTD SVG 1.1//EN" "http://www.w3.org/Graphics/SVG/1.1/DTD/svg11.dtd">
<!-- Creator: CorelDRAW -->
<svg xmlns="http://www.w3.org/2000/svg" xml:space="preserve" width="103.323mm" height="39.2629mm" version="1.1" style="shape-rendering:geometricPrecision; text-rendering:geometricPrecision; image-rendering:optimizeQuality; fill-rule:evenodd; clip-rule:evenodd"
viewBox="0 0 2215.7 841.96"
 xmlns:xlink="http://www.w3.org/1999/xlink"
 xmlns:xodm="http://www.corel.com/coreldraw/odm/2003"
 xmlns:svg="http://www.w3.org/2000/svg">
 <defs>
  <style type="text/css">
   <![CDATA[
    .fil0 {fill:black;fill-rule:nonzero}
   ]]>
  </style>
 </defs>
 <g id="Layer_x0020_1">
  <metadata id="CorelCorpID_0Corel-Layer"/>
  <g id="_2664652836256">
   <path id="path1" class="fil0" d="M523.64 700.53l0 -141.44 71.55 0 71.55 0 0 141.44 0 141.44 -71.55 0 -71.55 0 0 -141.44zm1409.37 119.65l0 -17.17 108.06 0c72.75,0 108.6,-0.06 109.72,-0.19 6.66,-0.76 13.03,-3.36 18.28,-7.48 1.71,-1.34 4.99,-4.65 6.25,-6.31 2.9,-3.83 5,-8.41 6.08,-13.26l0.41 -1.85 0.05 -107.42 0.05 -107.42 16.89 0 16.89 0 0 123.23c0,85.23 -0.06,123.82 -0.2,125.14 -0.81,7.98 -4.54,15.46 -10.5,21.06 -4.54,4.27 -10.07,7.1 -16.45,8.4 -1.48,0.3 -8.87,0.32 -128.56,0.38l-126.99 0.06 0 -17.17zm-1808.47 -119.21c-5.71,-0.65 -9.57,-1.84 -13.75,-4.22 -9.96,-5.68 -16.44,-15.74 -17.55,-27.24 -0.15,-1.54 -0.17,-14.34 -0.09,-46.16 0.28,-107.12 0.67,-251.04 0.84,-306.14 0.1,-32.95 0.19,-77.03 0.2,-97.95 0.01,-20.92 0.09,-41.44 0.17,-45.61 0.13,-6.71 0.2,-7.78 0.55,-9.42 2.21,-10.25 8.88,-18.65 18.38,-23.19 3.36,-1.6 6.48,-2.56 10.62,-3.25 1.81,-0.3 5.59,-0.33 58.3,-0.38l56.36 -0.06 0 213.73 0 213.73 106.45 0 106.45 0 0 68.13 0 68.13 -163.18 -0.03c-89.75,-0.02 -163.43,-0.06 -163.73,-0.09zm601.66 -174.55l0 -174.67 209.47 0 209.48 0 0 -41.82 0 -41.82 -209.48 0 -209.47 0 0 -65.36 0 -65.36 285.64 0 285.64 0 0 171.9 0 171.9 -119.74 0.05 -119.75 0.05 119.02 109.22c65.47,60.07 119.37,109.52 119.79,109.9l0.77 0.68 -101.83 0 -101.83 0 -117.53 -109.96 -117.53 -109.96 -0.05 109.97 -0.05 109.97 -66.29 0 -66.28 0 0 -174.67zm630.73 -107.74l0 -282.41 69.79 0 69.79 0 0 282.41 0 282.41 -69.79 0 -69.79 0 0 -282.41zm200.15 209.57l0 -70.44 187.97 0 187.96 0 0 -34.9 0 -34.9 -187.96 0 -187.97 0 0 -175.32 0 -175.32 282.13 0 282.13 0 0 69.89 0 69.89 -187.87 0 -187.87 0 0 35.54 0 35.54 187.87 0 187.87 0 0 175.22 0 175.23 -282.13 0 -282.13 0 0 -70.44zm-1248.73 -209.57l0 -71.55 71 0 71 0 0 71.55 0 71.55 -71 0 -71 0 0 -71.55zm100.08 -0.55l0 -28.71 -29.08 0 -29.08 0 0 28.59c0,15.73 0.06,28.65 0.12,28.71 0.07,0.07 13.15,0.12 29.08,0.12l28.96 0 0 -28.71zm115.22 -34.44l0 -105.43 -107.65 0 -107.65 0 0.05 -70.4 0.05 -70.4 163.04 0 163.04 0 2.4 0.43c14.88,2.68 25.95,13.03 29.23,27.31l0.5 2.17 0.05 160.87 0.05 160.87 -71.55 -0 -71.55 0 0 -105.43zm-523.34 -105.77c-0.28,-0.31 -0.3,-9.1 -0.3,-122.77 0,-84.28 0.06,-123.03 0.19,-124.34 1.06,-10.45 6.55,-19.55 15.17,-25.16 4.48,-2.91 10.32,-4.91 16,-5.46 1.26,-0.12 44.06,-0.18 126.31,-0.18 120.28,0 124.41,0.01 124.71,0.34 0.28,0.31 0.3,1.75 0.3,16.87 0,15.78 -0.02,16.54 -0.34,16.83 -0.31,0.29 -8.12,0.31 -108.58,0.31 -74.95,0 -108.79,0.06 -110.03,0.2 -6.13,0.67 -11.96,2.93 -16.56,6.42 -1.64,1.25 -4.22,3.8 -5.53,5.48 -3.72,4.76 -5.85,10.16 -6.55,16.57 -0.14,1.24 -0.2,34.65 -0.2,108.23 0,96.52 -0.03,106.47 -0.29,106.73 -0.26,0.26 -2.07,0.29 -17.14,0.29 -16.09,0 -16.87,-0.02 -17.16,-0.34l0 0z"/>
  </g>
 </g>
</svg>
